# xmcd
#
# Track frame offsets: 
#        150
#        21487
#        39077
#        57632
#        77036
#        96442
#        115617
#        134080
#        157032
#        174389
#        190734
#        203615
#        228285
#        247465
#        257032
#        276487
#        292432
#        314495
#        328149
#        343244
#
# Disc length: 4783 seconds
#
# Revision: 1
# Processed by: cddbd v1.5.2PL0 Copyright (c) Steve Scherf et al.
# Submitted via: ExactAudioCopy v1.3
#
DISCID=4112ad14
DTITLE=Various Artist - Akella Presents - vol.56 - Country-Blues  CD1
DYEAR=2015
DGENRE=Blues
TTITLE0=Ray Bonneville - Don't Look Back
TTITLE1=Greg Pearle and John Illsley - Shine
TTITLE2=Christine Lakeland - Black Cat
TTITLE3=Bo Walton - Wicked Moon
TTITLE4=Otis Taylor - Red Meat
TTITLE5=Doobie Twisters - Easy Money
TTITLE6=Ana and Milton Popovic - Evening Shadows
TTITLE7=Pepe Ahlqvist - Don't Walk Away
TTITLE8=Lazer Lloyd - Monday Is Gone
TTITLE9=Brendan Croker - No Money At All
TTITLE10=Jorma Kaukonen - Suffer Little Children To Come Unto Me
TTITLE11=James Taylor and Mark Knopfler - Sailing To Philadelphia
TTITLE12=Tony Joe White - Gumbo John
TTITLE13=Paul Black - Coyote Arm
TTITLE14=Dave Alvin - Beautiful City Cross the River
TTITLE15=Colin James - Just a Little Love
TTITLE16=Ewen Carruthers - The Big Gambler
TTITLE17=Ray Wylie Hubbard - Down Home Country Blues
TTITLE18=Ray Bonneville - If your love is strong
TTITLE19=The Wood Brothers - Smoke Ring Halo
EXTD=
EXTT0=
EXTT1=
EXTT2=
EXTT3=
EXTT4=
EXTT5=
EXTT6=
EXTT7=
EXTT8=
EXTT9=
EXTT10=
EXTT11=
EXTT12=
EXTT13=
EXTT14=
EXTT15=
EXTT16=
EXTT17=
EXTT18=
EXTT19=
PLAYORDER=
